<svg xmlns="http://www.w3.org/2000/svg" xmlns:xlink="http://www.w3.org/1999/xlink" width="0" height="0" style="display:none;"><symbol viewBox="0 0 24 24" id="add">
  <g class="add">
    <path d="M21 11h-8V3h-2v8H3v2h8v8h2v-8h8v-2z" class="Vector"/>
  </g>
</symbol><symbol viewBox="0 0 24 24" id="alert-triangle">
  <g class="alert-triangle">
    <path d="M20.997 21.004h-18a1 1 0 01-.89-1.45l9-18a1 1 0 011.79 0l9 18a1 1 0 01-.9 1.45zm-16.38-2h14.76l-7.38-14.76-7.38 14.76zm6.38-10h2v6h-2v-6zm1 9.25a1.25 1.25 0 110-2.501 1.25 1.25 0 010 2.5z" class="Vector"/>
  </g>
</symbol><symbol viewBox="0 0 24 24" id="archive">
  <path d="M18.7105,5.63636 C19.6992,5.63636 20.5,6.45 20.5,7.45455 L20.5,7.45455 L20.5,20.1818 C20.5,21.1864 19.6992,22 18.7105,22 L18.7105,22 L8.86842,22 C7.87974,22 7.07895,21.1864 7.07895,20.1818 L7.07895,20.1818 L7.07895,7.45455 C7.07895,6.45 7.87974,5.63636 8.86842,5.63636 L8.86842,5.63636 Z M17.0297582,16 L10.6131582,16 C10.5357582,16 10.4615582,16.0527 10.4068582,16.1464 C10.3521582,16.2402 10.3214582,16.3674 10.3214582,16.5 C10.3214582,16.6326 10.3521582,16.7598 10.4068582,16.8536 C10.4615582,16.9473 10.5357582,17 10.6131582,17 L17.0297582,17 C17.1071582,17 17.1813582,16.9473 17.2360582,16.8536 C17.2907582,16.7598 17.3214582,16.6326 17.3214582,16.5 C17.3214582,16.3674 17.2907582,16.2402 17.2360582,16.1464 C17.1813582,16.0527 17.1071582,16 17.0297582,16 Z M16.0263,2 L16.0263,3.81818 L5.28947,3.81818 L5.28947,16.5455 L3.5,16.5455 L3.5,3.81818 C3.5,2.81364 4.30079,2 5.28947,2 L5.28947,2 L16.0263,2 Z M17.0297582,14 L10.6131582,14 C10.5357582,14 10.4615582,14.0527 10.4068582,14.1464 C10.3521582,14.2402 10.3214582,14.3674 10.3214582,14.5 C10.3214582,14.6326 10.3521582,14.7598 10.4068582,14.8536 C10.4615582,14.9473 10.5357582,15 10.6131582,15 L17.0297582,15 C17.1071582,15 17.1813582,14.9473 17.2360582,14.8536 C17.2907582,14.7598 17.3214582,14.6326 17.3214582,14.5 C17.3214582,14.3674 17.2907582,14.2402 17.2360582,14.1464 C17.1813582,14.0527 17.1071582,14 17.0297582,14 Z M17.0297582,12 L10.6131582,12 C10.5357582,12 10.4615582,12.0527 10.4068582,12.1464 C10.3521582,12.2402 10.3214582,12.3674 10.3214582,12.5 C10.3214582,12.6326 10.3521582,12.7598 10.4068582,12.8536 C10.4615582,12.9473 10.5357582,13 10.6131582,13 L17.0297582,13 C17.1071582,13 17.1813582,12.9473 17.2360582,12.8536 C17.2907582,12.7598 17.3214582,12.6326 17.3214582,12.5 C17.3214582,12.3674 17.2907582,12.2402 17.2360582,12.1464 C17.1813582,12.0527 17.1071582,12 17.0297582,12 Z M17.0297582,10 L10.6131582,10 C10.5357582,10 10.4615582,10.0527 10.4068582,10.1464 C10.3521582,10.2402 10.3214582,10.3674 10.3214582,10.5 C10.3214582,10.6326 10.3521582,10.7598 10.4068582,10.8536 C10.4615582,10.9473 10.5357582,11 10.6131582,11 L17.0297582,11 C17.1071582,11 17.1813582,10.9473 17.2360582,10.8536 C17.2907582,10.7598 17.3214582,10.6326 17.3214582,10.5 C17.3214582,10.3674 17.2907582,10.2402 17.2360582,10.1464 C17.1813582,10.0527 17.1071582,10 17.0297582,10 Z"/>
</symbol><symbol viewBox="0 0 24 24" id="arrow-down">
  <g class="arrow-down">
    <path d="M15.29 15.91L13 18.2V2h-2v16.2l-2.29-2.29-1.42 1.41L12 22l4.71-4.71-1.42-1.38z" class="Vector"/>
  </g>
</symbol><symbol viewBox="0 0 24 24" id="arrow-left">
  <g class="arrow-left">
    <path d="M8.11 15l-1.42 1.41L2 11.69 6.69 7l1.42 1.41-2.3 2.28H22v2H5.81L8.11 15z" class="Vector"/>
  </g>
</symbol><symbol viewBox="0 0 24 24" id="arrow-right">
  <g class="arrow-right">
    <path d="M15.88 14.99l2.29-2.29H2v-2h16.17l-2.29-2.29L17.29 7 22 11.7l-4.71 4.71-1.41-1.42z" class="Vector"/>
  </g>
</symbol><symbol viewBox="0 0 24 24" id="arrow-up">
  <g class="arrow-up">
    <path d="M15 8.12l-2.29-2.29V22h-2V5.83L8.42 8.12 7 6.71 11.71 2l4.71 4.71L15 8.12z" class="Vector"/>
  </g>
</symbol><symbol viewBox="0 0 24 24" id="attachment">
  <path d="M16.5,6 L16.5,17.5 C16.5,19.71 14.71,21.5 12.5,21.5 C10.29,21.5 8.5,19.71 8.5,17.5 L8.5,5 C8.5,3.62 9.62,2.5 11,2.5 C12.38,2.5 13.5,3.62 13.5,5 L13.5,15.5 C13.5,16.05 13.05,16.5 12.5,16.5 C11.95,16.5 11.5,16.05 11.5,15.5 L11.5,6 L10,6 L10,15.5 C10,16.88 11.12,18 12.5,18 C13.88,18 15,16.88 15,15.5 L15,5 C15,2.79 13.21,1 11,1 C8.79,1 7,2.79 7,5 L7,17.5 C7,20.54 9.46,23 12.5,23 C15.54,23 18,20.54 18,17.5 L18,6 L16.5,6 Z"/>
</symbol><symbol viewBox="0 0 24 24" id="bin">
  <g class="bin">
    <path d="M5 19a2 2 0 002 2h10a2 2 0 002-2V7H5v12zM7 9h10v10H7V9zm8-5h6v2H3V4h6V2h6v2zm-6 7v6h2v-6H9zm4 0v6h2v-6h-2z" class="Vector"/>
  </g>
</symbol><symbol viewBox="0 0 24 24" id="bold">
  <g class="bold">
    <path d="M19.572 15.894c0-2.23-.894-3.55-2.765-4.307 1.018-.73 1.623-1.913 1.623-3.716C18.43 3.784 15.32 3 11.523 3H7.766c-1.156 0-2.45.069-2.56.124C5.083 3.206 5 3.716 5 4.362c0 .413.041 1.032.124 1.184.454.151 1.032.275 1.665.371V18.22c-.633.096-1.211.22-1.665.372-.083.151-.124.77-.124 1.183 0 .647.083 1.156.206 1.238.106.053 1.31.12 2.43.124h2.854c4.858 0 9.082-.399 9.082-5.242zm-9.176-5.67h-.387V5.752h.641c2.829.01 4.409.164 4.409 2.243 0 2.08-1.563 2.224-4.663 2.23zm.727 8.174h-1.114V13.32h1.445c3.04 0 4.747.454 4.747 2.601 0 2.108-1.658 2.464-5.078 2.477z" class="Vector"/>
  </g>
</symbol><symbol viewBox="0 0 24 24" id="calendar">
  <g class="calendar">
    <path d="M21 3a2 2 0 012 2v15a2 2 0 01-2 2H3a2 2 0 01-2-2V5a2 2 0 012-2h2v2H3v15h18V5h-3v2h-2V1h2v2h3zM8 5v2H6V1h2v2h7v2H8zM5 9h4v4H5V9zm5 0h4v4h-4V9zm5 0h4v4h-4V9zM5 14h4v4H5v-4zm5 0h4v4h-4v-4z" class="Vector"/>
  </g>
</symbol><symbol viewBox="0 0 24 24" id="check">
  <g class="check">
    <path d="M10.695 17L5 12.553l1.424-1.872 3.796 3.042L17.102 6 19 7.404 10.695 17z" class="Vector"/>
  </g>
</symbol><symbol viewBox="0 0 24 24" id="cross">
  <g class="cross">
    <path fill-rule="evenodd" d="M12 13.414l-5.293 5.293-1.414-1.414L10.586 12 5.293 6.707l1.414-1.414L12 10.586l5.293-5.293 1.414 1.414L13.414 12l5.293 5.293-1.414 1.414L12 13.414z" class="Vector" clip-rule="evenodd"/>
  </g>
</symbol><symbol viewBox="0 0 24 24" id="document">
  <g class="bbc-dr">
    <path d="M6.125 1c-1.174 0-2.114.984-2.114 2.2L4 20.8c0 1.215.94 2.2 2.114 2.2h12.761C20.049 23 21 22.015 21 20.8V7.6L14.625 1h-8.5zm7.438 7.7V2.65l5.843 6.05h-5.843z" class="Vector"/>
  </g>
</symbol><symbol viewBox="0 0 24 24" id="documents">
  <path d="M18.7105,5.63636 C19.6992,5.63636 20.5,6.45 20.5,7.45455 L20.5,7.45455 L20.5,20.1818 C20.5,21.1864 19.6992,22 18.7105,22 L18.7105,22 L8.86842,22 C7.87974,22 7.07895,21.1864 7.07895,20.1818 L7.07895,20.1818 L7.07895,7.45455 C7.07895,6.45 7.87974,5.63636 8.86842,5.63636 L8.86842,5.63636 Z M18.7105,7.45455 L8.86842,7.45455 L8.86842,20.1818 L18.7105,20.1818 L18.7105,7.45455 Z M17.0297582,16 C17.1071582,16 17.1813582,16.0527 17.2360582,16.1464 C17.2907582,16.2402 17.3214582,16.3674 17.3214582,16.5 C17.3214582,16.6326 17.2907582,16.7598 17.2360582,16.8536 C17.1950332,16.923875 17.1430394,16.9710875 17.0869535,16.9903016 L17.0297582,17 L10.6131582,17 C10.5357582,17 10.4615582,16.9473 10.4068582,16.8536 C10.3521582,16.7598 10.3214582,16.6326 10.3214582,16.5 C10.3214582,16.3674 10.3521582,16.2402 10.4068582,16.1464 C10.4478832,16.076125 10.4998769,16.0289125 10.5559629,16.0096984 L10.6131582,16 L17.0297582,16 Z M16.0263,2 L16.0263,3.81818 L5.28947,3.81818 L5.28947,16.5455 L3.5,16.5455 L3.5,3.81818 C3.5,2.81364 4.30079,2 5.28947,2 L5.28947,2 L16.0263,2 Z M17.0297582,14 C17.1071582,14 17.1813582,14.0527 17.2360582,14.1464 C17.2907582,14.2402 17.3214582,14.3674 17.3214582,14.5 C17.3214582,14.6326 17.2907582,14.7598 17.2360582,14.8536 C17.1950332,14.923875 17.1430394,14.9710875 17.0869535,14.9903016 L17.0297582,15 L10.6131582,15 C10.5357582,15 10.4615582,14.9473 10.4068582,14.8536 C10.3521582,14.7598 10.3214582,14.6326 10.3214582,14.5 C10.3214582,14.3674 10.3521582,14.2402 10.4068582,14.1464 C10.4478832,14.076125 10.4998769,14.0289125 10.5559629,14.0096984 L10.6131582,14 L17.0297582,14 Z M17.0297582,12 C17.1071582,12 17.1813582,12.0527 17.2360582,12.1464 C17.2907582,12.2402 17.3214582,12.3674 17.3214582,12.5 C17.3214582,12.6326 17.2907582,12.7598 17.2360582,12.8536 C17.1950332,12.923875 17.1430394,12.9710875 17.0869535,12.9903016 L17.0297582,13 L10.6131582,13 C10.5357582,13 10.4615582,12.9473 10.4068582,12.8536 C10.3521582,12.7598 10.3214582,12.6326 10.3214582,12.5 C10.3214582,12.3674 10.3521582,12.2402 10.4068582,12.1464 C10.4478832,12.076125 10.4998769,12.0289125 10.5559629,12.0096984 L10.6131582,12 L17.0297582,12 Z M17.0297582,10 C17.1071582,10 17.1813582,10.0527 17.2360582,10.1464 C17.2907582,10.2402 17.3214582,10.3674 17.3214582,10.5 C17.3214582,10.6326 17.2907582,10.7598 17.2360582,10.8536 C17.1950332,10.923875 17.1430394,10.9710875 17.0869535,10.9903016 L17.0297582,11 L10.6131582,11 C10.5357582,11 10.4615582,10.9473 10.4068582,10.8536 C10.3521582,10.7598 10.3214582,10.6326 10.3214582,10.5 C10.3214582,10.3674 10.3521582,10.2402 10.4068582,10.1464 C10.4478832,10.076125 10.4998769,10.0289125 10.5559629,10.0096984 L10.6131582,10 L17.0297582,10 Z"/>
</symbol><symbol viewBox="0 0 24 24" id="download">
  <path d="M19.35,10.04 C18.67,6.59 15.64,4 12,4 C9.11,4 6.6,5.64 5.35,8.04 C2.34,8.36 0,10.91 0,14 C0,17.31 2.69,20 6,20 L19,20 C21.76,20 24,17.76 24,15 C24,12.36 21.95,10.22 19.35,10.04 Z M17,13 L12,18 L7,13 L10,13 L10,9 L14,9 L14,13 L17,13 Z"/>
</symbol><symbol viewBox="0 0 24 24" id="draft">
  <g class="documents">
    <path d="M15.526 2H4.79C3.801 2 3 2.814 3 3.818v12.728h1.79V3.818h10.736V2zm2.684 3.636H8.368c-.988 0-1.79.814-1.79 1.819v12.727c0 1.004.802 1.818 1.79 1.818h9.842c.99 0 1.79-.814 1.79-1.818V7.455c0-1.005-.8-1.819-1.79-1.819zm0 14.546H8.368V7.455h9.842v12.727z" class="Vector"/>
  </g>
</symbol><symbol viewBox="0 0 24 24" id="export">
  <path d="M8.30387729,1.05196106 L3.40937322,5.93422888 L7.08025128,5.93422888 L7.08025128,14.5118473 L9.52750331,14.5118473 L9.52750331,5.93422888 L13.1983814,5.93422888 L8.30387729,1.05196106 Z M16.8692594,18.1949616 L16.8692594,9.61734319 L14.4220074,9.61734319 L14.4220074,18.1949616 L10.7511293,18.1949616 L15.6456334,23.0772294 L20.5401375,18.1949616 L16.8692594,18.1949616 Z"/>
</symbol><symbol viewBox="0 0 24 24" id="github">
  <g class="github">
    <path fill-rule="evenodd" d="M11.928 2c5.474 0 9.929 4.438 9.912 9.928 0 4.39-2.843 8.104-6.788 9.42-.494.098-.674-.214-.674-.477 0-.33.016-1.398.016-2.73 0-.936-.312-1.528-.674-1.84 2.22-.247 4.537-1.085 4.537-4.899 0-1.084-.378-1.972-1.02-2.663.1-.246.445-1.265-.098-2.63 0 0-.838-.263-2.728 1.02a9.612 9.612 0 00-2.483-.33c-.838 0-1.693.116-2.482.33-1.89-1.283-2.728-1.02-2.728-1.02-.543 1.365-.198 2.384-.099 2.63a3.872 3.872 0 00-1.02 2.663c0 3.814 2.319 4.669 4.521 4.899-.28.246-.542.69-.624 1.331-.576.263-2.006.69-2.893-.822 0 0-.526-.953-1.53-1.019 0 0-.969 0-.065.608 0 0 .658.296 1.101 1.447 0 0 .576 1.775 3.337 1.183 0 .822.017 1.611.017 1.841 0 .264-.181.576-.674.477C4.844 20.032 2 16.317 2 11.928A9.92 9.92 0 0111.928 2zM8.44 18.06c.122 0 .227.1.227.226a.228.228 0 01-.226.226.228.228 0 01-.227-.226c0-.126.105-.226.227-.226zm.995.075a.247.247 0 01-.197.27c-.125.025-.233-.049-.25-.172a.247.247 0 01.196-.27c.125-.025.233.049.25.172zm-1.741-.184c.125.049.196.17.178.292-.018.122-.143.171-.268.122-.125-.048-.196-.195-.178-.292.018-.122.143-.171.268-.122zm-.585-.35c.099.083.118.227.059.31-.06.082-.198.062-.317-.042-.1-.102-.139-.247-.06-.309.06-.082.199-.061.318.042zm-.437-.531c.095.105.095.232 0 .295-.095.064-.238 0-.31-.105-.095-.106-.095-.254 0-.296.096-.063.239 0 .31.106zm-.861-.948c.114.07.17.208.142.311l-.003.006.024-.015c.078-.041.19.006.282.091.104.12.13.263.052.311-.078.072-.233.024-.31-.072-.081-.075-.115-.179-.088-.255-.057.05-.157.055-.241.004-.114-.07-.2-.208-.143-.311.029-.104.171-.139.285-.07z" class="Vector" clip-rule="evenodd"/>
  </g>
</symbol><symbol viewBox="0 0 24 24" id="hierarchal-back">
  <g class="hierarchal-back">
    <path fill-rule="evenodd" d="M8.735 4l4.734 4.735-1.422 1.422L9.74 7.85v10.246H20v2.012H7.729L7.728 7.85l-2.306 2.307L4 8.735 8.735 4z" class="Vector" clip-rule="evenodd"/>
  </g>
</symbol><symbol viewBox="0 0 24 24" id="indent">
  <g class="indent">
    <path d="M2 22h20v-2.222H2V22zM2 7.556v8.888L6.444 12 2 7.556zm8.889 10H22v-2.223H10.889v2.223zM2 2v2.222h20V2H2zm8.889 6.667H22V6.444H10.889v2.223zm0 4.444H22V10.89H10.889v2.222z" class="Vector"/>
  </g>
</symbol><symbol viewBox="0 0 24 24" id="info-circle">
  <g class="info-circle">
    <path d="M12 22C6.486 22 2 17.515 2 12 2 6.487 6.486 2 12 2s10 4.486 10 10c0 5.515-4.486 10-10 10zm0-18c-4.411 0-8 3.589-8 8s3.589 8 8 8 8-3.589 8-8-3.589-8-8-8zm1 11h2v2H9v-2h2v-3h-1v-2h2a1 1 0 011 1v4zm-1-5.75a1.25 1.25 0 110-2.5 1.25 1.25 0 010 2.5z" class="Vector"/>
  </g>
</symbol><symbol viewBox="0 0 24 24" id="italic">
  <g class="italic">
    <path d="M11.937 22.36c.109-.124.187-.543.187-.947 0-.327-.047-.669-.14-.809a22.327 22.327 0 00-1.725-.31l5.214-16.087a21.742 21.742 0 001.725-.326c.093-.14.14-.482.14-.809 0-.404-.078-.823-.186-.948-.104-.059-.993-.118-1.84-.124h-1.937c-.886 0-1.865.062-1.974.124-.109.125-.187.544-.187.948 0 .327.047.669.14.809.466.108 1.073.233 1.726.326L7.864 20.294c-.653.093-1.259.201-1.725.31-.093.14-.14.482-.14.809 0 .404.078.823.187.948.103.059.992.118 1.84.123l1.936.001c.886 0 1.865-.062 1.974-.124z" class="Vector"/>
  </g>
</symbol><symbol viewBox="0 0 24 24" id="link-external">
  <path d="m19 19h-14v-14h7v-2h-7c-1.11 0-2 .9-2 2v14c0 1.1.89 2 2 2h14c1.1 0 2-.9 2-2v-7h-2zm-5-16v2h3.59l-9.83 9.83 1.41 1.41 9.83-9.83v3.59h2v-7z"/>
</symbol><symbol viewBox="0 0 24 24" id="link">
  <g id="link">
    <path d="m3.9 12c0-1.71 1.39-3.1 3.1-3.1h4v-1.9h-4c-2.76 0-5 2.24-5 5s2.24 5 5 5h4v-1.9h-4c-1.71 0-3.1-1.39-3.1-3.1zm4.1 1h8v-2h-8zm9-6h-4v1.9h4c1.71 0 3.1 1.39 3.1 3.1s-1.39 3.1-3.1 3.1h-4v1.9h4c2.76 0 5-2.24 5-5s-2.24-5-5-5z"/>
  </g>
</symbol><symbol viewBox="0 0 24 24" id="login">
  <g class="login">
    <path d="M12.193 17.106c.99 0 1.799-.85 1.799-1.888 0-1.039-.81-1.889-1.799-1.889-.989 0-1.798.85-1.798 1.889 0 1.038.81 1.888 1.798 1.888zm5.395-8.497h-.899V6.72C16.689 4.115 14.675 2 12.193 2 9.712 2 7.697 4.115 7.697 6.72V8.61h-.899C5.81 8.609 5 9.459 5 10.497v9.441c0 1.039.81 1.888 1.798 1.888h10.79c.99 0 1.799-.85 1.799-1.888v-9.441c0-1.038-.81-1.888-1.799-1.888zM9.406 6.72c0-1.615 1.25-2.927 2.787-2.927 1.538 0 2.788 1.312 2.788 2.927v1.888H9.406V6.72zm8.182 13.217H6.798v-9.441h10.79v9.441z" class="Vector"/>
  </g>
</symbol><symbol viewBox="0 0 24 24" id="logout">
  <g class="logout">
    <path d="M13 3h-2v10h2V3zm4.83 2.17l-1.42 1.42A6.92 6.92 0 0119 12c0 3.87-3.13 7-7 7A6.995 6.995 0 017.58 6.58L6.17 5.17A8.932 8.932 0 003 12a9 9 0 0018 0c0-2.74-1.23-5.18-3.17-6.83z" class="Vector"/>
  </g>
</symbol><symbol viewBox="0 0 24 24" id="manual">
  <g class="manual">
    <path d="M4 6H2v14a2 2 0 002 2h14v-2H4V6zm16-4H8a2 2 0 00-2 2v12a2 2 0 002 2h12a2 2 0 002-2V4a2 2 0 00-2-2zm-1 9H9V9h10v2zm-4 4H9v-2h6v2zm4-8H9V5h10v2z" class="Vector"/>
  </g>
</symbol><symbol viewBox="0 0 24 24" id="message">
  <g class="berichtencentrum">
    <path d="M20.8 1A2.2 2.2 0 0123 3.2v13.2a2.2 2.2 0 01-2.2 2.2H5.4L1 23l.011-19.8c0-1.216.974-2.2 2.189-2.2h17.6zm-.751 11.504H3.95v2.169H20.05v-2.169zm0-3.958H3.95v2.169H20.05V8.546zm0-3.958H3.95v2.169H20.05V4.588z" class="Vector"/>
  </g>
</symbol><symbol viewBox="0 0 24 24" id="nav-down">
  <g class="nav-down">
    <path d="M12 17L3 8.429 4.5 7l7.5 7.143L19.5 7 21 8.429 12 17z" class="Vector"/>
  </g>
</symbol><symbol viewBox="0 0 24 24" id="nav-left">
  <g class="nav-left">
    <path d="M15.429 21L6 12l9.429-9L17 4.5 9.143 12 17 19.5 15.429 21z" class="Vector"/>
  </g>
</symbol><symbol viewBox="0 0 24 24" id="nav-right">
  <g class="nav-right">
    <path d="M8.429 21L7 19.5l7.143-7.5L7 4.5 8.429 3 17 12l-8.571 9z" class="Vector"/>
  </g>
</symbol><symbol viewBox="0 0 24 24" id="nav-up-down">
  <g class="nav-up-down">
    <path d="M12 23l-8-8.571L5.333 13 12 20.143 18.667 13 20 14.429 12 23z" class="Vector"/>
    <path d="M18.667 10L12 3.571 5.333 10 4 8.714 12 1l8 7.714L18.667 10z" class="Vector_2"/>
  </g>
</symbol><symbol viewBox="0 0 24 24" id="nav-up">
  <g class="nav-up">
    <path d="M19.5 18L12 10.143 4.5 18 3 16.429 12 7l9 9.429L19.5 18z" class="Vector"/>
  </g>
</symbol><symbol viewBox="0 0 24 24" id="ordered-list">
  <g class="ordered-list">
    <path d="M2 17.625h2.21v.563H3.106v1.125h1.106v.562H2V21h3.316v-4.5H2v1.125zM3.105 7.5h1.106V3H2v1.125h1.105V7.5zM2 10.875h1.99L2 13.238v1.012h3.316v-1.125h-1.99l1.99-2.363V9.75H2v1.125zm5.526-6.75v2.25H23v-2.25H7.526zm0 15.75H23v-2.25H7.526v2.25zm0-6.75H23v-2.25H7.526v2.25z" class="Vector"/>
  </g>
</symbol><symbol viewBox="0 0 24 24" id="pencil">
  <g class="pencil">
    <path d="M20.85 3.188a4 4 0 00-5.69 0L3.75 14.598c-.117.134-.206.29-.26.46l-1.46 5.71a1 1 0 00.26.95.999.999 0 00.95.26l5.7-1.43c.17-.053.327-.142.46-.26l11.45-11.41a4 4 0 000-5.69zm-6.41 3.55l2.86 2.86-8.56 8.57-2.87-2.86 8.57-8.57zm-10 12.9l.59-2.38 1.75 1.75-2.34.63zm15-15a2.08 2.08 0 010 2.86l-.72.72-2.87-2.9.72-.72a2.07 2.07 0 012.87 0v.04z" class="Vector"/>
  </g>
</symbol><symbol viewBox="0 0 24 24" id="plus-text">
  <g class="plus-text">
    <path d="M14.4,4.85714846 L0,4.85714846 L0,7.28571615 L14.4,7.28571615 L14.4,4.85714846 Z M14.4,0 L0,0 L0,2.42856769 L14.4,2.42856769 L14.4,0 Z M19.2,9.71428385 L19.2,4.85714846 L16.8,4.85714846 L16.8,9.71428385 L12,9.71428385 L12,12.1428646 L16.8,12.1428646 L16.8,17 L19.2,17 L19.2,12.1428646 L24,12.1428646 L24,9.71428385 L19.2,9.71428385 Z M0,12.1428646 L9.6,12.1428646 L9.6,9.71428385 L0,9.71428385 L0,12.1428646 Z"/>
  </g>
</symbol><symbol viewBox="0 0 24 24" id="question-circle">
  <g class="question-circle">
    <path d="M12 22a10 10 0 110-20 10 10 0 010 20zm0-18a8 8 0 100 16 8 8 0 000-16zm1 11h-2v-3h1a2 2 0 10-2-2H8a4 4 0 115 3.88V15zm-1 3.25a1.25 1.25 0 110-2.5 1.25 1.25 0 010 2.5z" class="Vector"/>
  </g>
</symbol><symbol viewBox="0 0 24 24" id="redo">
  <g class="redo">
    <path d="M5.664 5.664A9.01 9.01 0 0112.068 3c5.01 0 9.057 4.058 9.057 9.068s-4.047 9.068-9.057 9.068c-4.222 0-7.759-2.89-8.762-6.8h2.358a6.79 6.79 0 006.404 4.533 6.8 6.8 0 006.801-6.8 6.8 6.8 0 00-6.8-6.802c-1.877 0-3.56.782-4.79 2.012l3.656 3.656H3V3l2.664 2.664z" class="Vector"/>
  </g>
</symbol><symbol viewBox="0 0 24 24" id="renew">
  <g class="renew">
    <path d="M19 8l-4 4h3c0 3.31-2.69 6-6 6-1.01 0-1.97-.25-2.8-.7l-1.46 1.46C8.97 19.54 10.43 20 12 20c4.42 0 8-3.58 8-8h3l-4-4zM6 12c0-3.31 2.69-6 6-6 1.01 0 1.97.25 2.8.7l1.46-1.46C15.03 4.46 13.57 4 12 4c-4.42 0-8 3.58-8 8H1l4 4 4-4H6z"/>
  </g>
</symbol><symbol viewBox="0 0 24 24" id="reverse-indent">
  <g class="reverse-indent">
    <path d="M10.889 17.556H22v-2.223H10.889v2.223zM2 12l4.444 4.444V7.556L2 12zm0 10h20v-2.222H2V22zM2 2v2.222h20V2H2zm8.889 6.667H22V6.444H10.889v2.223zm0 4.444H22V10.89H10.889v2.222z" class="Vector"/>
  </g>
</symbol><symbol viewBox="0 0 24 24" id="search-folder">
  <g class="toezicht">
    <path d="M11.635 9.071a2.536 2.536 0 10.002 5.073 2.536 2.536 0 00-.002-5.073zM20.255 4H4.029C2.908 4 2 4.908 2 6.028v12.17c0 1.122.908 2.03 2.028 2.03h16.228c1.12 0 2.028-.908 2.028-2.03V6.029c0-1.12-.908-2.028-2.028-2.028zm-3.25 14.407L14.06 15.46a4.51 4.51 0 01-2.424.71 4.564 4.564 0 114.564-4.564 4.48 4.48 0 01-.71 2.42l2.951 2.94-1.435 1.44z" class="Vector"/>
  </g>
</symbol><symbol viewBox="0 0 24 24" id="search">
  <g class="search">
    <path d="M21.701 20.301l-5.4-5.4a7.88 7.88 0 001.7-4.9 8.27 8.27 0 00-2.3-5.7 8.21 8.21 0 00-11.4 0 8.21 8.21 0 000 11.4 8.27 8.27 0 005.7 2.3 7.88 7.88 0 004.9-1.7l5.4 5.4 1.4-1.4zm-11.7-4.3a5.6 5.6 0 01-4.2-1.8 5.6 5.6 0 01-1.8-4.2 5.6 5.6 0 011.8-4.2 5.6 5.6 0 014.2-1.8 5.6 5.6 0 014.2 1.8 5.6 5.6 0 011.8 4.2 5.6 5.6 0 01-1.8 4.2 5.6 5.6 0 01-4.2 1.8z" class="Vector"/>
  </g>
</symbol><symbol viewBox="0 0 24 24" id="settings">
  <path d="M19.43,12.98 C19.47,12.66 19.5,12.34 19.5,12 C19.5,11.66 19.47,11.34 19.43,11.02 L21.54,9.37 C21.73,9.22 21.78,8.95 21.66,8.73 L19.66,5.27 C19.54,5.05 19.27,4.97 19.05,5.05 L16.56,6.05 C16.04,5.65 15.48,5.32 14.87,5.07 L14.49,2.42 C14.46,2.18 14.25,2 14,2 L10,2 C9.75,2 9.54,2.18 9.51,2.42 L9.13,5.07 C8.52,5.32 7.96,5.66 7.44,6.05 L4.95,5.05 C4.72,4.96 4.46,5.05 4.34,5.27 L2.34,8.73 C2.21,8.95 2.27,9.22 2.46,9.37 L4.57,11.02 C4.53,11.34 4.5,11.67 4.5,12 C4.5,12.33 4.53,12.66 4.57,12.98 L2.46,14.63 C2.27,14.78 2.22,15.05 2.34,15.27 L4.34,18.73 C4.46,18.95 4.73,19.03 4.95,18.95 L7.44,17.95 C7.96,18.35 8.52,18.68 9.13,18.93 L9.51,21.58 C9.54,21.82 9.75,22 10,22 L14,22 C14.25,22 14.46,21.82 14.49,21.58 L14.87,18.93 C15.48,18.68 16.04,18.34 16.56,17.95 L19.05,18.95 C19.28,19.04 19.54,18.95 19.66,18.73 L21.66,15.27 C21.78,15.05 21.73,14.78 21.54,14.63 L19.43,12.98 Z M12,15.5 C10.07,15.5 8.5,13.93 8.5,12 C8.5,10.07 10.07,8.5 12,8.5 C13.93,8.5 15.5,10.07 15.5,12 C15.5,13.93 13.93,15.5 12,15.5 Z"/>
</symbol><symbol viewBox="0 0 24 24" id="sitemap">
  <g class="sitemap">
    <path d="M20 16.194v-2.18a3 3 0 00-3-3h-4v-2.16a3.5 3.5 0 10-2 0v2.16H7a3 3 0 00-3 3v2.18a3 3 0 102 0v-2.18a1 1 0 011-1h4v3.18a3 3 0 102 0v-3.18h4a1 1 0 011 1v2.18a3 3 0 102 0zm-9.5-10.68a1.5 1.5 0 113 0 1.5 1.5 0 01-3 0zM5 20.014a1 1 0 110-2 1 1 0 010 2zm7 0a1 1 0 110-2 1 1 0 010 2zm7 0a1 1 0 110-2 1 1 0 010 2z" class="Vector"/>
  </g>
</symbol><symbol viewBox="0 0 24 24" id="strikethrough">
  <g class="strikethrough">
    <path fill-rule="evenodd" d="M16.785 14.275c.214.507.335 1.108.335 1.848 0 3.96-3.461 5.793-6.893 5.793-1.311 0-2.61-.26-3.736-.755l-.209-.096v-2.171c.006-.79.06-1.646.103-1.73.117-.117.513-.176.894-.176.323 0 .646.044.778.117.146.66.307 1.584.395 2.508.675.117 1.408.19 2.127.19 2.273 0 4.429-.777 4.429-3.182 0-1.05-.408-1.75-1.144-2.346h2.921zm2.617-3.456v1.789H4v-1.789h15.402zM12.368 2c1.097 0 2.18.175 3.16.444l.242.07v2.038c-.004.795-.06 1.66-.102 1.745-.117.117-.513.176-.895.176-.322 0-.645-.044-.777-.117-.147-.572-.279-1.379-.381-2.2-.41-.044-.836-.074-1.247-.074-1.994 0-3.916.602-3.916 2.948 0 .953.308 1.555.836 2.024.042.036.086.072.133.109H6.693c-.2-.559-.308-1.21-.308-1.957C6.385 3.32 9.332 2 12.368 2z" class="Vector" clip-rule="evenodd"/>
  </g>
</symbol><symbol viewBox="0 0 24 24" id="switch">
  <g clip-path="url(#clip0)">
    <path d="M17.738 18.07v-4.668H6.535v4.668L0 11.535 6.535 5v4.668h11.203V5l6.535 6.535-6.535 6.535z" class="Vector"/>
  </g>
  <defs>
    <clippath id="clip0" class="clip0">
      <path d="M0 0h24v24H0z"/>
    </clippath>
  </defs>
</symbol><symbol viewBox="0 0 24 24" id="underlined">
  <g class="underlined">
    <path fill-rule="evenodd" d="M18.756 20.882V22.7H5.186v-1.82h13.57zM7.442 2c.712.005 1.459.055 1.546.104.091.105.156.457.156.797 0 .274-.039.561-.117.679-.392.091-.914.196-1.45.274v8.304c0 5.131 2.26 5.458 4.348 5.458h.094c2.274-.012 4.346-.473 4.346-5.458V3.854a17.188 17.188 0 01-1.45-.274c-.078-.118-.117-.405-.117-.68 0-.339.065-.691.156-.796.092-.052.914-.104 1.659-.104h1.626c.713.005 1.46.055 1.546.104.092.105.157.457.157.797 0 .274-.04.561-.117.679-.392.091-.914.196-1.45.274v8.957c0 5.875-3.486 6.659-6.437 6.659-2.911 0-6.371-.758-6.371-6.66V3.855a17.19 17.19 0 01-1.45-.274C4.04 3.462 4 3.175 4 2.9c0-.339.065-.691.157-.796C4.248 2.052 5.07 2 5.815 2h1.627z" class="Vector" clip-rule="evenodd"/>
  </g>
</symbol><symbol viewBox="0 0 24 24" id="unordered-list">
  <g class="unordered-list">
    <path d="M3.622 10.4C2.724 10.4 2 11.115 2 12c0 .885.724 1.6 1.622 1.6.897 0 1.621-.715 1.621-1.6 0-.885-.724-1.6-1.621-1.6zm0-6.4C2.724 4 2 4.715 2 5.6c0 .885.724 1.6 1.622 1.6.897 0 1.621-.715 1.621-1.6 0-.885-.724-1.6-1.621-1.6zm0 12.8C2.719 16.8 2 17.52 2 18.4c0 .88.73 1.6 1.622 1.6.892 0 1.621-.72 1.621-1.6 0-.88-.719-1.6-1.621-1.6zm3.243 2.667H22v-2.134H6.865v2.134zm0-6.4H22v-2.134H6.865v2.134zm0-8.534v2.134H22V4.533H6.865z" class="Vector"/>
  </g>
</symbol><symbol viewBox="0 0 24 24" id="upload">
  <path d="M19.35,10.04 C18.67,6.59 15.64,4 12,4 C9.11,4 6.6,5.64 5.35,8.04 C2.34,8.36 0,10.91 0,14 C0,17.31 2.69,20 6,20 L19,20 C21.76,20 24,17.76 24,15 C24,12.36 21.95,10.22 19.35,10.04 Z M14,13 L14,17 L10,17 L10,13 L7,13 L12,8 L17,13 L14,13 Z"/>
</symbol><symbol viewBox="0 0 24 24" id="user-fill">
  <g class="mandatenbeheer">
    <path d="M12 12c2.762 0 5-2.244 5-5 0-2.763-2.238-5-5-5S7 4.237 7 7c0 2.756 2.238 5 5 5zm0 2.5c-3.331 0-10 1.669-10 5V22h20v-2.5c0-3.331-6.669-5-10-5z" class="Vector"/>
  </g>
</symbol><symbol viewBox="0 0 24 24" id="user-popup">
  <g class="leidinggevendenbeheer">
    <path d="M19 2H5a2 2 0 00-2 2v14a2 2 0 002 2h4l3 3 3-3h4a2 2 0 002-2V4a2 2 0 00-2-2zm-7 3.3c1.49 0 2.7 1.21 2.7 2.7 0 1.49-1.21 2.7-2.7 2.7-1.49 0-2.7-1.21-2.7-2.7 0-1.49 1.21-2.7 2.7-2.7zM18 16H6v-.9c0-2 4-3.1 6-3.1s6 1.1 6 3.1v.9z" class="Vector"/>
  </g>
</symbol><symbol viewBox="0 0 24 24" id="user">
  <g class="user">
    <path fill-rule="evenodd" d="M16 8a4 4 0 11-8 0 4 4 0 018 0zm-.286 4.713a6 6 0 10-7.428 0A10.018 10.018 0 002.2 20c-.131.646-.2 1.315-.2 2h20c0-.685-.069-1.354-.2-2a10.018 10.018 0 00-6.086-7.287zM12 14a8.003 8.003 0 00-7.748 6h15.496c-.888-3.45-4.02-6-7.748-6z" class="Vector" clip-rule="evenodd"/>
  </g>
</symbol><symbol viewBox="0 0 24 24" id="users">
  <g class="personeelsbeheer">
    <path d="M16 11a2.994 2.994 0 002.99-3A2.994 2.994 0 1013 8c0 1.655 1.345 3 3 3zm-8 0a2.994 2.994 0 002.99-3A2.994 2.994 0 105 8c0 1.655 1.345 3 3 3zm0 2c-2.335 0-7 1.17-7 3.5V19h14v-2.5c0-2.33-4.665-3.5-7-3.5zm8 0c-.29 0-.615.02-.965.055C16.195 13.89 17 15.015 17 16.5V19h6v-2.5c0-2.33-4.665-3.5-7-3.5z" class="Vector"/>
  </g>
</symbol></svg>